<?xml version="1.0" standalone="no"?>
<!DOCTYPE svg PUBLIC "-//W3C//DTD SVG 20010904//EN"
 "http://www.w3.org/TR/2001/REC-SVG-20010904/DTD/svg10.dtd">
<svg version="1.0" xmlns="http://www.w3.org/2000/svg"
 width="700.000000pt" height="700.000000pt" viewBox="0 0 700.000000 700.000000"
 preserveAspectRatio="xMidYMid meet">
<metadata>
Created by potrace 1.11, written by Peter Selinger 2001-2013
</metadata>
<g transform="translate(0.000000,700.000000) scale(0.100000,-0.100000)"
fill="#000000" stroke="none">
<path d="M964 6990 c-29 -11 -932 -916 -950 -952 -10 -19 -13 -41 -8 -61 5
-25 199 -224 912 -939 499 -499 908 -905 910 -903 2 2 6 25 8 52 40 465 332
837 769 977 44 14 104 28 134 32 118 14 194 -73 -788 907 -489 488 -895 887
-902 888 -8 0 -25 2 -39 4 -14 2 -34 0 -46 -5z"/>
<path d="M4672 5523 c-18 -8 -46 -31 -63 -51 -31 -35 -33 -54 -14 -104 6 -15
2 -15 -35 3 -52 25 -213 78 -260 85 -19 3 -53 9 -75 13 -76 13 -228 4 -309
-18 -188 -52 -301 -139 -395 -304 -24 -42 -29 -58 -19 -62 385 -130 688 -323
996 -635 229 -232 445 -573 539 -848 31 -92 26 -90 112 -39 150 89 254 250
288 442 8 50 8 205 0 266 -13 96 -50 224 -88 308 -11 24 -18 46 -15 49 3 3 6
1 6 -5 0 -6 13 -16 30 -23 25 -11 33 -9 59 9 75 53 97 127 62 206 -43 98 -262
334 -554 599 -140 127 -189 147 -265 109z"/>
<path d="M2968 4955 c-2 -2 -37 -5 -78 -8 -307 -22 -559 -188 -695 -457 -70
-139 -98 -267 -97 -455 0 -222 63 -460 186 -705 54 -108 185 -322 205 -335 4
-2 44 31 88 73 l82 77 -50 67 c-43 60 -139 213 -139 224 0 2 -13 32 -29 67
-25 55 -62 163 -78 231 -2 12 -6 64 -8 116 -7 199 77 335 248 398 238 89 606
-2 961 -240 407 -272 714 -674 782 -1026 57 -296 -69 -507 -330 -553 -63 -11
-255 -7 -275 6 -4 2 -21 7 -37 9 -58 11 -70 15 -154 44 -94 32 -234 100 -335
162 -36 22 -70 40 -75 40 -6 0 -48 -39 -94 -87 l-84 -87 42 -30 c233 -169 569
-318 771 -340 33 -4 76 -10 95 -13 69 -11 267 -9 348 4 255 40 493 207 600
418 159 317 140 732 -53 1142 -139 293 -342 557 -596 771 -40 35 -85 72 -99
84 -55 47 -251 168 -355 220 -144 72 -196 91 -340 127 -155 39 -166 41 -255
47 -41 3 -92 6 -112 8 -21 2 -39 2 -40 1z"/>
<path d="M3110 3391 c-40 -33 -132 -121 -374 -359 l-172 -168 22 -17 c13 -9
27 -17 31 -17 16 0 124 -112 149 -156 14 -24 29 -44 32 -44 4 0 132 123 284
273 236 232 277 277 283 308 9 46 -8 80 -72 140 -82 79 -125 88 -183 40z"/>
<path d="M5172 2775 c-49 -337 -270 -642 -577 -797 -103 -52 -321 -113 -434
-122 -23 -2 -44 -5 -47 -8 -4 -5 432 -447 1368 -1386 475 -476 477 -477 550
-453 27 9 150 128 484 467 247 251 458 469 468 486 39 62 59 40 -885 986 -482
482 -885 885 -896 894 -19 17 -19 16 -31 -67z"/>
<path d="M2333 2769 c-140 -26 -246 -158 -238 -297 6 -106 50 -188 130 -244
165 -115 407 -18 450 180 45 212 -132 400 -342 361z"/>
<path d="M1654 2521 c-72 -44 -82 -149 -29 -306 69 -203 259 -404 460 -488
155 -65 266 -69 351 -14 59 39 63 130 9 195 -29 34 -64 48 -145 57 -221 25
-385 183 -406 390 -7 72 -21 108 -52 138 -52 50 -133 62 -188 28z"/>
<path d="M1144 2500 c-83 -38 -111 -87 -109 -190 9 -313 131 -597 355 -821 56
-56 153 -139 163 -139 3 0 25 -13 49 -29 145 -96 370 -167 559 -175 125 -5
184 24 226 109 24 51 21 105 -11 160 -36 60 -86 82 -203 89 -95 5 -167 21
-263 59 -226 87 -427 305 -494 539 -23 78 -26 93 -32 183 -8 123 -34 178 -101
214 -36 19 -99 20 -139 1z"/>
<path d="M581 2457 c-65 -25 -112 -109 -106 -189 2 -18 6 -69 9 -113 18 -253
105 -519 244 -745 26 -41 49 -77 52 -80 3 -3 24 -30 45 -60 204 -282 553 -516
915 -614 131 -35 199 -45 405 -60 159 -11 257 115 196 251 -31 68 -78 91 -202
98 -94 5 -273 30 -289 40 -4 2 -22 7 -40 10 -49 9 -206 71 -280 112 -156 85
-307 213 -423 360 -31 40 -57 75 -57 78 0 4 -13 25 -28 48 -57 84 -120 234
-151 357 -28 107 -37 168 -46 309 -6 97 -23 140 -73 177 -41 32 -117 41 -171
21z"/>
</g>
</svg>
